<?xml version="1.0" encoding="UTF-8"?>
<svg width="110px" height="24px" viewBox="0 0 110 24" version="1.1" xmlns="http://www.w3.org/2000/svg" xmlns:xlink="http://www.w3.org/1999/xlink">
    <!-- Generator: Sketch 53.2 (72643) - https://sketchapp.com -->
    <title>logo-menu</title>
    <desc>Created with Sketch.</desc>
    <defs>
        <ellipse id="path-1" cx="11.1594203" cy="11.2" rx="11.1594203" ry="11.2"></ellipse>
        <filter x="-20.9%" y="-20.8%" width="141.8%" height="141.7%" filterUnits="objectBoundingBox" id="filter-3">
            <feGaussianBlur stdDeviation="1.6" in="SourceGraphic"></feGaussianBlur>
        </filter>
    </defs>
    <g id="Page-1" stroke="none" stroke-width="1" fill="none" fill-rule="evenodd">
        <g id="logo-menu">
            <path d="M45.123913,18.4 L45.123913,4.684 L48.1927536,4.684 L48.1927536,15.468 L54.9984058,15.468 L54.9984058,18.4 L45.123913,18.4 Z M66.2789855,13.0736 C66.2789855,13.4816 66.2423188,13.8896 66.1865217,14.2976 L58.7336232,14.2976 C59.0484783,15.412 59.9181159,16.2096 61.49,16.2096 C62.5804348,16.2096 63.8382609,15.7832 64.6521014,15.2256 L65.7983333,17.212 C64.8178986,17.9544 63.2468116,18.6224 61.3600725,18.6224 C57.569058,18.6224 55.8122464,16.0616 55.8122464,13.296 C55.8122464,10.2704 57.938913,7.9696 61.1568116,7.9696 C64.0598551,7.9696 66.2789855,9.844 66.2789855,13.0736 L66.2789855,13.0736 Z M61.1568116,10.3264 C59.9731159,10.3264 59.0484783,11.032 58.716087,12.2192 L63.4867391,12.2192 C63.2276812,11.0688 62.3771739,10.3264 61.1568116,10.3264 Z M75.6002899,8.2288 L78.3367391,8.2288 L78.3367391,18.4 L75.5994928,18.4 L75.5994928,17.36 C74.8597826,18.1032 73.8618116,18.66 72.4748551,18.66 C69.5526812,18.66 67.4810145,16.284 67.4810145,13.2592 C67.4810145,10.2152 69.6076812,7.9696 72.474058,7.9696 C73.8426812,7.9696 74.8597826,8.5448 75.5994928,9.3056 L75.5994928,8.2288 L75.6002899,8.2288 Z M72.9738406,16.0056 C74.5082609,16.0056 75.5994928,14.7624 75.5994928,13.296 C75.5994928,11.848 74.5082609,10.624 72.9738406,10.624 C71.4386232,10.624 70.3848551,11.848 70.3848551,13.296 C70.3848551,14.7808 71.4569565,16.0056 72.9738406,16.0056 Z M80.5742029,18.4 L80.5742029,8.2288 L83.403913,8.2288 L83.403913,9.64 C83.9028986,8.7304 85.0682609,7.9504 86.6026812,7.9504 C88.6185507,7.9504 90.5419565,9.3056 90.5419565,12.1824 L90.5419565,18.4 L87.6381159,18.4 L87.6381159,12.944 C87.6381159,11.44 86.8434058,10.624 85.6597101,10.624 C84.3652174,10.624 83.4772464,11.5888 83.4772464,13.0176 L83.4772464,18.4 L80.5742029,18.4 Z M92.9643478,4.684 L96.0339855,4.684 L96.0339855,18.4 L92.9643478,18.4 L92.9643478,4.684 Z M97.5317391,18.4 L101.84087,11.4768 L97.8465942,4.6848 L101.378551,4.6848 L103.819275,9.1568 L106.408261,4.6848 L109.977681,4.6848 L105.742681,11.4768 L109.941014,18.4 L106.408261,18.4 L103.782609,13.7968 L101.101159,18.4 L97.5317391,18.4 Z" id="Shape" fill="#FFFFFF" fill-rule="nonzero"></path>
            <g id="Group" transform="translate(11.478261, 0.640000)">
                <g id="a-link" opacity="0.6" fill="#FFFFFF" fill-rule="nonzero">
                    <ellipse id="a" cx="11.1594203" cy="11.2" rx="11.1594203" ry="11.2"></ellipse>
                </g>
                <g id="Clipped">
                    <mask id="mask-2" fill="white">
                        <use xlink:href="#path-1"></use>
                    </mask>
                    <g id="a"></g>
                    <polygon id="Path" fill-opacity="0.55" fill="#166BFF" fill-rule="nonzero" filter="url(#filter-3)" mask="url(#mask-2)" points="-7.8115942 13.44 3.66666667 1.92 15.1449275 13.44 3.66666667 24.96"></polygon>
                </g>
            </g>
            <polygon id="Path" fill="#FFFFFF" fill-rule="nonzero" opacity="0.6" points="0 11.84 11.4782609 0.32 22.9565217 11.84 11.4782609 23.36"></polygon>
            <path d="M14.9081884,19.9176 C12.7139687,17.8080011 11.474752,14.8896023 11.4782609,11.84 C11.4782609,8.6656 12.7934783,5.8 14.9081884,3.7624 L22.9565217,11.84 L14.9081884,19.9176 Z" id="Path" fill="#FFFFFF" fill-rule="nonzero"></path>
        </g>
    </g>
</svg>